<svg id="图层_1" data-name="图层 1" xmlns="http://www.w3.org/2000/svg" viewBox="0 0 2114.33 500.01"><defs><style>.cls-1{fill:#08aeb2;}.cls-2{isolation:isolate;}</style></defs><title>ionchain</title><path class="cls-1" d="M437.59,325.7l-10.8-18.84A21,21,0,0,0,410,273.39a22.11,22.11,0,0,0-2.3.23L265.14,24.94a49.63,49.63,0,0,0-86.1,0l-5.66,9.87a20.72,20.72,0,0,0-4-.41,21,21,0,0,0-15.69,34.78L6.58,325.7a49.63,49.63,0,0,0,43,74.31H65a20.79,20.79,0,0,0,38.69,0H394.54a49.63,49.63,0,0,0,43-74.31Zm-13.68,41.7a33.61,33.61,0,0,1-29.39,16.94H103.73a20.79,20.79,0,0,0-38.73,0H49.63a34,34,0,0,1-29.46-50.85L167.65,76.29c.57,0,1.12.18,1.71.18a21,21,0,0,0,17.12-33l6.15-10.71a34,34,0,0,1,58.92,0L394,281.15a20.77,20.77,0,0,0,19.49,34L424,333.53A33.61,33.61,0,0,1,423.91,367.4Z" transform="translate(0 0)"/><path class="cls-1" d="M437.5,124.7A49.11,49.11,0,0,0,394.58,100H373.35a20.79,20.79,0,0,0-38.7,0h-285a49.61,49.61,0,0,0-43,74.28l9,15.69A21,21,0,0,0,33.2,222.3c.33,0,.63-.08,1-.09l145,252.85a49.6,49.6,0,0,0,86.07,0l12.39-21.61A20.88,20.88,0,0,0,296.85,420L437.76,174.24A49.13,49.13,0,0,0,437.5,124.7ZM424,166.45,283.24,412a20.89,20.89,0,0,0-19.33,33.72l-12.36,21.55a33.94,33.94,0,0,1-58.89,0L48.33,215.59A20.87,20.87,0,0,0,28.4,180.82l-8.24-14.37a33.93,33.93,0,0,1,29.44-50.8h285a20.79,20.79,0,0,0,38.73,0h21.21A33.93,33.93,0,0,1,424,166.47Z" transform="translate(0 0)"/><path class="cls-1" d="M218.71,194.29a28.06,28.06,0,1,0-1.65,39.65q.85-.8,1.65-1.65A33.22,33.22,0,0,1,218.71,194.29Z" transform="translate(0 0)"/><path class="cls-1" d="M229.48,235.91a28.12,28.12,0,0,0,4.76,2.74,33.23,33.23,0,0,1,36.11-11.76,27.94,27.94,0,1,0-40.82,9Z" transform="translate(0 0)"/><path class="cls-1" d="M232.91,255.31A33.22,33.22,0,0,1,255.24,286a27.94,27.94,0,1,0-21.19-36A26.88,26.88,0,0,0,232.91,255.31Z" transform="translate(0 0)"/><path class="cls-1" d="M171.78,233.29A27.93,27.93,0,1,0,210.11,250a28.54,28.54,0,0,0-2.2-5A33.25,33.25,0,0,1,171.78,233.29Z" transform="translate(0 0)"/><path class="cls-1" d="M216.66,259.24A33.24,33.24,0,0,1,194.36,290a27.94,27.94,0,1,0,24.41-31.08c-.71.09-1.41.2-2.11.34Z" transform="translate(0 0)"/><g class="cls-2"><path class="cls-1" d="M628.59,132.08V360.57H591.15V132.08Z" transform="translate(0 0)"/><path class="cls-1" d="M857.39,161.52c19.2,21.45,28.8,49.93,28.8,85.13s-9.6,63.36-28.8,84.8q-30.24,33.6-82.56,33.6c-35.2,0-62.72-11.52-82.56-33.92-19.2-21.76-28.48-49.92-28.48-84.48,0-34.88,9.28-63,28.48-84.8,19.84-23,47.36-34.25,82.56-34.25C809.71,127.6,837.23,138.81,857.39,161.52Zm-137.6,23c-12.48,15.36-18.56,35.84-18.56,62.08,0,25.92,6.08,46.4,18.56,61.76,12.8,15.68,31.36,23.68,55,23.68s41.92-7.68,54.72-22.72c12.48-15,18.88-35.84,18.88-62.72s-6.4-48-18.88-63.36c-12.8-15.36-31-22.73-54.72-22.73S732.91,168.57,719.79,184.57Z" transform="translate(0 0)"/><path class="cls-1" d="M958.83,132.08l113,164.81h1.28V132.08h37.76V360.57h-36.48l-114.24-167h-1.28v167H921.38V132.08Z" transform="translate(0 0)"/><path class="cls-1" d="M1321.39,148.73c16.64,13.44,26.56,32,30.08,55H1315c-3.84-15-10.88-25.92-21.44-33-10.24-7-23.36-10.25-39.36-10.25-24,0-41.93,8-54.09,24.65-11.2,14.72-16.64,35.2-16.64,61.44,0,26.88,5.44,47.68,16.32,62.08,11.84,15.36,30.41,23.36,55.37,23.36,16.32,0,29.76-4.16,40-11.84,10.88-8.64,18.56-21.76,23-39h36.48c-5.12,26.88-17,47.68-35.84,62.72q-26.4,21.12-63.37,21.12c-38.08,0-66.56-12.16-85.12-35.84-16.32-20.48-24.32-48-24.32-82.56,0-33.92,8.32-61.76,25.28-82.88,19.2-24.33,47-36.17,83.53-36.17C1281.71,127.6,1304.11,134.65,1321.39,148.73Z" transform="translate(0 0)"/><path class="cls-1" d="M1427.3,132.08v95.37h115.84V132.08h37.45V360.57h-37.45V259.45H1427.3V360.57h-37.44V132.08Z" transform="translate(0 0)"/><path class="cls-1" d="M1732.9,132.08l87.36,228.49h-40l-20.8-57.28h-95.68L1643,360.57h-40l87.36-228.49Zm15.36,140.49-35.84-100.16h-1.28L1675,272.57Z" transform="translate(0 0)"/><path class="cls-1" d="M1880.1,132.08V360.57h-37.45V132.08Z" transform="translate(0 0)"/><path class="cls-1" d="M1962.33,132.08l113,164.81h1.28V132.08h37.76V360.57h-36.48l-114.24-167h-1.28v167h-37.44V132.08Z" transform="translate(0 0)"/></g></svg>