<?xml version="1.0" encoding="utf-8"?>
<!-- Generator: Adobe Illustrator 22.0.1, SVG Export Plug-In . SVG Version: 6.00 Build 0)  -->
<svg version="1.1" id="图层_1" xmlns="http://www.w3.org/2000/svg" xmlns:xlink="http://www.w3.org/1999/xlink" x="0px" y="0px"
	 viewBox="0 0 2114.3 500" style="enable-background:new 0 0 2114.3 500;" xml:space="preserve">
<style type="text/css">
	.st0{fill:#FFFFFF;}
</style>
<title>ionchain</title>
<path class="st0" d="M437.6,325.7l-10.8-18.8c6.9-9.3,4.9-22.5-4.4-29.4c-3.6-2.6-7.9-4.1-12.4-4.1c-0.8,0-1.5,0.1-2.3,0.2
	L265.1,24.9c-13.6-23.8-44-32-67.7-18.4c-7.6,4.4-14,10.7-18.4,18.4l-5.7,9.9c-1.3-0.3-2.7-0.4-4-0.4c-11.6,0.1-20.9,9.6-20.8,21.2
	c0,5,1.9,9.8,5.2,13.6L6.6,325.7c-13.6,23.8-5.4,54.1,18.4,67.7c7.5,4.3,16,6.6,24.6,6.6H65c4.2,10.7,16.3,15.9,27,11.7
	c5.4-2.1,9.6-6.4,11.7-11.7h290.9c27.4,0,49.6-22.3,49.6-49.7C444.1,341.7,441.8,333.2,437.6,325.7L437.6,325.7z M423.9,367.4
	c-6,10.5-17.3,17-29.4,16.9H103.7c-4.2-10.7-16.2-16-26.9-11.8c-5.4,2.1-9.7,6.4-11.8,11.8H49.6c-18.8,0-34-15.3-33.9-34.1
	c0-5.9,1.6-11.7,4.5-16.8L167.6,76.3c0.6,0,1.1,0.2,1.7,0.2c11.6-0.1,20.9-9.5,20.9-21.1c0-4.3-1.3-8.4-3.8-11.9l6.1-10.7
	c9.4-16.3,30.2-21.9,46.4-12.5c5.2,3,9.5,7.3,12.5,12.5L394,281.1c-7.5,8.7-6.5,21.8,2.1,29.3c4.8,4.1,11.1,5.8,17.3,4.7l10.5,18.4
	C430.1,344,430,357,423.9,367.4L423.9,367.4z"/>
<path class="st0" d="M437.5,124.7c-8.8-15.4-25.2-24.8-42.9-24.7h-21.2c-4.2-10.7-16.3-15.9-27-11.7c-5.4,2.1-9.6,6.4-11.7,11.7
	h-285c-27.4,0-49.6,22.3-49.6,49.7c0,8.6,2.3,17.1,6.6,24.6l9,15.7c-6.3,9.8-3.4,22.8,6.4,29c3.3,2.1,7.2,3.3,11.2,3.3
	c0.3,0,0.6-0.1,1-0.1l145,252.8c13.6,23.8,43.9,32,67.7,18.4c7.6-4.4,14-10.7,18.4-18.4l12.4-21.6c11.4,1.5,21.9-6.6,23.4-18.1
	c0.7-5.5-0.8-11-4.2-15.4l140.9-245.8C446.6,158.9,446.5,140,437.5,124.7z M424,166.4L283.2,412c-11.4-1.7-22,6.2-23.7,17.7
	c-0.8,5.7,0.7,11.5,4.4,16.1l-12.4,21.5c-9.3,16.3-30.1,21.9-46.3,12.6c-5.2-3-9.6-7.3-12.6-12.6L48.3,215.6
	c8-8.3,7.8-21.5-0.5-29.5c-5.1-5-12.5-6.9-19.4-5.3l-8.2-14.4c-9.3-16.3-3.7-37,12.6-46.3c5.1-2.9,11-4.5,16.9-4.5h285
	c4.2,10.7,16.2,16,26.9,11.8c5.4-2.1,9.7-6.4,11.8-11.8h21.2c18.7,0,33.9,15.2,34,33.9C428.5,155.5,427,161.3,424,166.4L424,166.4z"
	/>
<path class="st0" d="M218.7,194.3c-10.5-11.4-28.2-12.1-39.6-1.6s-12.1,28.2-1.6,39.6c10.5,11.4,28.2,12.1,39.6,1.6
	c0.6-0.5,1.1-1.1,1.6-1.6C210.8,220.9,210.8,205.7,218.7,194.3z"/>
<path class="st0" d="M229.5,235.9c1.5,1.1,3.1,2,4.8,2.7c8.4-11.1,22.8-15.8,36.1-11.8c7.5-13.5,2.7-30.5-10.8-38
	c-13.5-7.5-30.5-2.7-38,10.8C214.7,212,218.1,227.6,229.5,235.9L229.5,235.9z"/>
<path class="st0" d="M232.9,255.3c13.1,4.6,22,16.8,22.3,30.7c15.1,3,29.8-6.9,32.8-22c3-15.1-6.9-29.8-22-32.8
	c-13.9-2.7-27.6,5.4-32,18.8C233.5,251.7,233.1,253.5,232.9,255.3z"/>
<path class="st0" d="M171.8,233.3c-14,6.5-20.1,23.1-13.6,37.1c6.5,14,23.1,20.1,37.1,13.6c12.8-5.9,19.2-20.5,14.8-34
	c-0.6-1.7-1.3-3.4-2.2-5C194.6,249,180.2,244.4,171.8,233.3z"/>
<path class="st0" d="M216.7,259.2c-0.3,13.9-9.2,26.2-22.3,30.8c1.8,15.3,15.8,26.2,31.1,24.4c15.3-1.8,26.2-15.8,24.4-31.1
	c-1.8-15.3-15.8-26.2-31.1-24.4C218.1,259,217.4,259.1,216.7,259.2L216.7,259.2z"/>
<g>
	<path class="st0" d="M628.6,132.1v228.5h-37.4V132.1H628.6z"/>
	<path class="st0" d="M857.4,161.5c19.2,21.4,28.8,49.9,28.8,85.1s-9.6,63.4-28.8,84.8c-20.2,22.4-47.7,33.6-82.6,33.6
		c-35.2,0-62.7-11.5-82.6-33.9c-19.2-21.8-28.5-49.9-28.5-84.5c0-34.9,9.3-63,28.5-84.8c19.8-23,47.4-34.2,82.6-34.2
		C809.7,127.6,837.2,138.8,857.4,161.5z M719.8,184.5c-12.5,15.4-18.6,35.8-18.6,62.1c0,25.9,6.1,46.4,18.6,61.8
		c12.8,15.7,31.4,23.7,55,23.7s41.9-7.7,54.7-22.7c12.5-15,18.9-35.8,18.9-62.7s-6.4-48-18.9-63.4c-12.8-15.4-31-22.7-54.7-22.7
		S732.9,168.6,719.8,184.5L719.8,184.5z"/>
	<path class="st0" d="M958.8,132.1l113,164.8h1.3V132.1h37.8v228.5h-36.5l-114.2-167h-1.3v167h-37.5V132.1H958.8z"/>
	<path class="st0" d="M1321.4,148.7c16.6,13.4,26.6,32,30.1,55H1315c-3.8-15-10.9-25.9-21.4-33c-10.2-7-23.4-10.2-39.4-10.2
		c-24,0-41.9,8-54.1,24.6c-11.2,14.7-16.6,35.2-16.6,61.4c0,26.9,5.4,47.7,16.3,62.1c11.8,15.4,30.4,23.4,55.4,23.4
		c16.3,0,29.8-4.2,40-11.8c10.9-8.6,18.6-21.8,23-39h36.5c-5.1,26.9-17,47.7-35.8,62.7c-17.6,14.1-38.7,21.1-63.4,21.1
		c-38.1,0-66.6-12.2-85.1-35.8c-16.3-20.5-24.3-48-24.3-82.6c0-33.9,8.3-61.8,25.3-82.9c19.2-24.3,47-36.2,83.5-36.2
		C1281.7,127.6,1304.1,134.6,1321.4,148.7z"/>
	<path class="st0" d="M1427.3,132.1v95.4h115.8v-95.4h37.4v228.5h-37.4V259.5h-115.8v101.1h-37.4V132.1H1427.3z"/>
	<path class="st0" d="M1732.9,132.1l87.4,228.5h-40l-20.8-57.3h-95.7l-20.8,57.3h-40l87.4-228.5H1732.9z M1748.3,272.6l-35.8-100.2
		h-1.3L1675,272.6H1748.3z"/>
	<path class="st0" d="M1880.1,132.1v228.5h-37.4V132.1H1880.1z"/>
	<path class="st0" d="M1962.3,132.1l113,164.8h1.3V132.1h37.8v228.5h-36.5l-114.2-167h-1.3v167h-37.4V132.1H1962.3z"/>
</g>
</svg>
